<svg xmlns="http://www.w3.org/2000/svg" width="100%" viewBox="0 0 680 340" role="img">
<title>MoodBoard — privacy-first AI mood tracker</title>
<desc>Static banner showing MoodBoard logo, tagline, and 4 AI features</desc>
<rect width="680" height="340" rx="16" fill="#130d2b"/>
<circle cx="42"  cy="18"  r="1"   fill="#a78bfa" opacity=".6"/>
<circle cx="98"  cy="44"  r="1.5" fill="#c4b5fd" opacity=".4"/>
<circle cx="155" cy="12"  r="1"   fill="#a78bfa" opacity=".5"/>
<circle cx="210" cy="38"  r="1"   fill="#ddd6fe" opacity=".3"/>
<circle cx="290" cy="10"  r="1.5" fill="#a78bfa" opacity=".5"/>
<circle cx="370" cy="28"  r="1"   fill="#c4b5fd" opacity=".4"/>
<circle cx="440" cy="8"   r="1"   fill="#a78bfa" opacity=".6"/>
<circle cx="510" cy="35"  r="1.5" fill="#ddd6fe" opacity=".3"/>
<circle cx="580" cy="14"  r="1"   fill="#c4b5fd" opacity=".5"/>
<circle cx="630" cy="42"  r="1"   fill="#a78bfa" opacity=".4"/>
<circle cx="660" cy="22"  r="1.5" fill="#ddd6fe" opacity=".3"/>
<circle cx="72"  cy="310" r="1"   fill="#a78bfa" opacity=".3"/>
<circle cx="600" cy="300" r="1"   fill="#c4b5fd" opacity=".3"/>
<circle cx="340" cy="318" r="1.5" fill="#a78bfa" opacity=".2"/>
<circle cx="0"   cy="0"   r="120" fill="none" stroke="#2d1f5e" stroke-width="1"   opacity=".5"/>
<circle cx="0"   cy="0"   r="80"  fill="none" stroke="#3b2a6e" stroke-width="0.5" opacity=".4"/>
<circle cx="680" cy="340" r="140" fill="none" stroke="#2d1f5e" stroke-width="1"   opacity=".5"/>
<circle cx="680" cy="340" r="90"  fill="none" stroke="#3b2a6e" stroke-width="0.5" opacity=".4"/>
<circle cx="340" cy="72" r="36" fill="#2d1f5e"/>
<circle cx="340" cy="72" r="28" fill="#3b2a6e"/>
<circle cx="340" cy="72" r="20" fill="#4c1d95"/>
<circle cx="340" cy="72" r="14" fill="#7c3aed"/>
<circle cx="349" cy="66" r="10" fill="#3b2a6e"/>
<circle cx="340" cy="36" r="3.5" fill="#a78bfa"/>
<circle cx="375" cy="60" r="2.5" fill="#7c3aed" opacity=".7"/>
<text x="340" y="128" text-anchor="middle" font-size="32" font-weight="700" fill="#f5f3ff" font-family="Georgia, serif" letter-spacing="-0.5">MoodBoard</text>
<text x="340" y="152" text-anchor="middle" font-size="13" fill="#a78bfa" font-family="sans-serif" letter-spacing="0.3">Privacy-first mood tracker  ·  Self-hosted  ·  AI-powered</text>
<line x1="120" y1="170" x2="310" y2="170" stroke="#4c1d95" stroke-width="0.8"/>
<circle cx="340" cy="170" r="3" fill="#7c3aed"/>
<line x1="370" y1="170" x2="560" y2="170" stroke="#4c1d95" stroke-width="0.8"/>
<circle cx="122" cy="170" r="1.5" fill="#4c1d95"/>
<circle cx="558" cy="170" r="1.5" fill="#4c1d95"/>
<!-- Card 1: Auto-Detect -->
<rect x="30"  y="188" width="143" height="118" rx="12" fill="#1e1040" stroke="#4c1d95" stroke-width="1"/>
<rect x="30"  y="188" width="143" height="4"   rx="2"  fill="#7c3aed"/>
<circle cx="101" cy="216" r="13" fill="#2d1f5e" stroke="#6d28d9" stroke-width="1"/>
<circle cx="96"  cy="213" r="2"  fill="#a78bfa"/>
<circle cx="106" cy="213" r="2"  fill="#a78bfa"/>
<path d="M96 221 Q101 226 106 221" fill="none" stroke="#a78bfa" stroke-width="1.5" stroke-linecap="round"/>
<text x="101" y="242" text-anchor="middle" font-size="11" font-weight="700" fill="#c4b5fd" font-family="sans-serif">Auto-Detect</text>
<text x="101" y="258" text-anchor="middle" font-size="9.5" fill="#7c6aad" font-family="sans-serif">Face expression</text>
<text x="101" y="271" text-anchor="middle" font-size="9.5" fill="#7c6aad" font-family="sans-serif">reads your mood</text>
<rect x="55"  y="284" width="92" height="14" rx="7" fill="#2d1f5e"/>
<rect x="55"  y="284" width="72" height="14" rx="7" fill="#6d28d9"/>
<text x="101" y="295" text-anchor="middle" font-size="8" fill="#ddd6fe" font-family="sans-serif">AI Powered</text>
<!-- Card 2: Spotify Match -->
<rect x="191" y="188" width="143" height="118" rx="12" fill="#1e1040" stroke="#4c1d95" stroke-width="1"/>
<rect x="191" y="188" width="143" height="4"   rx="2"  fill="#1db954"/>
<circle cx="262" cy="216" r="13" fill="#2d1f5e" stroke="#1a7a3c" stroke-width="1"/>
<rect x="260" y="208" width="8" height="1.5" rx="1" fill="#1db954"/>
<rect x="267" y="209" width="1.5" height="7" rx="1" fill="#1db954"/>
<rect x="259" y="215" width="1.5" height="5" rx="1" fill="#1db954"/>
<circle cx="260" cy="220" r="2.5" fill="#1db954"/>
<circle cx="268" cy="216" r="2"   fill="#1db954"/>
<text x="262" y="242" text-anchor="middle" font-size="11" font-weight="700" fill="#c4b5fd" font-family="sans-serif">Spotify Match</text>
<text x="262" y="258" text-anchor="middle" font-size="9.5" fill="#7c6aad" font-family="sans-serif">Playlist matched</text>
<text x="262" y="271" text-anchor="middle" font-size="9.5" fill="#7c6aad" font-family="sans-serif">to your mood</text>
<rect x="216" y="284" width="92" height="14" rx="7" fill="#2d1f5e"/>
<rect x="216" y="284" width="65" height="14" rx="7" fill="#1db954"/>
<text x="262" y="295" text-anchor="middle" font-size="8" fill="#f0fdf4" font-family="sans-serif">Spotify API</text>
<!-- Card 3: AI Therapist -->
<rect x="352" y="188" width="143" height="118" rx="12" fill="#1e1040" stroke="#4c1d95" stroke-width="1"/>
<rect x="352" y="188" width="143" height="4"   rx="2"  fill="#7c3aed"/>
<circle cx="423" cy="216" r="13" fill="#2d1f5e" stroke="#6d28d9" stroke-width="1"/>
<path d="M416 216 Q416 210 423 210 Q430 210 430 216 Q430 222 423 222 Q416 222 416 216Z" fill="none" stroke="#a78bfa" stroke-width="1.2"/>
<path d="M419 213 Q421 211 423 213" fill="none" stroke="#a78bfa" stroke-width="1" stroke-linecap="round"/>
<path d="M423 213 Q425 211 427 213" fill="none" stroke="#a78bfa" stroke-width="1" stroke-linecap="round"/>
<line x1="423" y1="210" x2="423" y2="222" stroke="#6d28d9" stroke-width="0.8"/>
<text x="423" y="242" text-anchor="middle" font-size="11" font-weight="700" fill="#c4b5fd" font-family="sans-serif">AI Therapist</text>
<text x="423" y="258" text-anchor="middle" font-size="9.5" fill="#7c6aad" font-family="sans-serif">Wellness tips &amp;</text>
<text x="423" y="271" text-anchor="middle" font-size="9.5" fill="#7c6aad" font-family="sans-serif">mood suggestions</text>
<rect x="377" y="284" width="92" height="14" rx="7" fill="#2d1f5e"/>
<rect x="377" y="284" width="85" height="14" rx="7" fill="#6d28d9"/>
<text x="423" y="295" text-anchor="middle" font-size="8" fill="#ddd6fe" font-family="sans-serif">Claude AI</text>
<!-- Card 4: Voice Entry -->
<rect x="513" y="188" width="143" height="118" rx="12" fill="#1e1040" stroke="#4c1d95" stroke-width="1"/>
<rect x="513" y="188" width="143" height="4"   rx="2"  fill="#7c3aed"/>
<circle cx="584" cy="216" r="13" fill="#2d1f5e" stroke="#6d28d9" stroke-width="1"/>
<rect x="581" y="207" width="6" height="9" rx="3" fill="#a78bfa"/>
<path d="M578 214 Q578 221 584 221 Q590 221 590 214" fill="none" stroke="#a78bfa" stroke-width="1.2" stroke-linecap="round"/>
<line x1="584" y1="221" x2="584" y2="225" stroke="#a78bfa" stroke-width="1.2"/>
<line x1="581" y1="225" x2="587" y2="225" stroke="#a78bfa" stroke-width="1.2" stroke-linecap="round"/>
<text x="584" y="242" text-anchor="middle" font-size="11" font-weight="700" fill="#c4b5fd" font-family="sans-serif">Voice Entry</text>
<text x="584" y="258" text-anchor="middle" font-size="9.5" fill="#7c6aad" font-family="sans-serif">Speak to journal</text>
<text x="584" y="271" text-anchor="middle" font-size="9.5" fill="#7c6aad" font-family="sans-serif">completely hands-free</text>
<rect x="538" y="284" width="92" height="14" rx="7" fill="#2d1f5e"/>
<rect x="538" y="284" width="56" height="14" rx="7" fill="#6d28d9"/>
<text x="584" y="295" text-anchor="middle" font-size="8" fill="#ddd6fe" font-family="sans-serif">Speech API</text>
<text x="340" y="326" text-anchor="middle" font-size="10" fill="#4c3d7a" font-family="sans-serif" letter-spacing="0.5">Your data · Your server · Your rules · No ads · No subscriptions</text>
</svg>
